<?xml version="1.0" standalone="no"?>
<!DOCTYPE svg PUBLIC "-//W3C//DTD SVG 20010904//EN"
 "http://www.w3.org/TR/2001/REC-SVG-20010904/DTD/svg10.dtd">
<svg version="1.0" xmlns="http://www.w3.org/2000/svg"
 width="434.000000pt" height="434.000000pt" viewBox="0 0 434.000000 434.000000"
 preserveAspectRatio="xMidYMid meet">
<metadata>
Created by potrace 1.11, written by Peter Selinger 2001-2013
</metadata>
<g transform="translate(0.000000,434.000000) scale(0.100000,-0.100000)"
fill="#000000" stroke="none">
<path d="M343 3720 c33 -26 53 -83 72 -205 26 -168 83 -258 217 -345 61 -40
187 -95 196 -86 9 9 -18 115 -50 198 -16 43 -49 106 -74 140 l-45 63 59 -62
c70 -72 130 -185 157 -293 l18 -74 15 39 c8 22 15 76 16 121 1 73 -2 86 -36
155 -76 154 -244 275 -482 348 -85 26 -95 26 -63 1z"/>
<path d="M1189 3627 c-19 -18 -68 -58 -108 -90 -103 -83 -136 -160 -115 -267
l7 -32 18 46 c16 44 76 146 85 146 3 0 -2 -12 -10 -27 -28 -56 -73 -233 -58
-233 17 0 124 89 157 130 48 61 75 151 75 254 0 105 -6 113 -51 73z"/>
<path d="M1844 3491 c10 -11 24 -56 33 -108 17 -102 51 -172 102 -212 37 -29
119 -73 158 -85 l22 -7 -20 72 c-21 75 -41 121 -68 154 -10 13 -5 11 13 -5 33
-29 73 -103 96 -180 l17 -55 13 56 c34 151 -84 293 -309 370 -68 24 -78 24
-57 0z"/>
<path d="M800 2487 c0 -550 -2 -569 -59 -649 -32 -45 -99 -83 -163 -92 l-48
-7 0 -90 c0 -102 -4 -99 100 -79 165 31 290 152 335 325 12 50 15 144 15 577
l0 518 -90 0 -90 0 0 -503z"/>
<path d="M1053 2758 c5 -259 14 -312 74 -432 43 -85 110 -153 188 -192 56 -27
68 -29 175 -29 108 0 119 2 182 32 93 43 168 117 211 206 51 104 59 162 61
417 l1 225 -90 0 -90 0 -5 -245 c-5 -238 -6 -247 -31 -300 -33 -69 -70 -106
-137 -138 -111 -51 -231 -15 -294 88 -49 80 -60 145 -65 383 l-5 217 -90 0
-90 0 5 -232z"/>
<path d="M2022 2218 c4 -853 1 -817 69 -955 156 -322 607 -304 764 29 37 79
55 184 55 331 l0 77 -51 0 -50 0 3 33 c3 31 5 32 51 35 l47 3 0 75 0 74 -89 0
-89 0 -4 -237 c-3 -218 -6 -243 -26 -294 -26 -65 -75 -119 -135 -151 -61 -33
-168 -32 -220 1 -48 29 -89 85 -119 160 l-23 56 -3 768 -3 767 -90 0 -90 0 3
-772z"/>
<path d="M2615 2976 c-200 -49 -345 -232 -345 -436 0 -166 102 -325 257 -402
65 -32 72 -33 188 -33 113 0 124 2 185 31 65 31 180 125 180 148 0 6 -31 35
-69 63 l-69 51 -33 -35 c-109 -114 -292 -109 -394 10 -35 41 -65 117 -65 167
0 108 89 225 195 255 91 27 190 0 258 -70 l37 -38 55 38 c97 67 97 67 34 131
-109 111 -266 156 -414 120z"/>
<path d="M3445 2976 c-161 -39 -297 -177 -334 -337 -46 -196 61 -410 248 -502
63 -31 71 -32 187 -32 118 0 121 1 195 37 41 20 85 48 99 63 l24 26 -61 61
-62 62 -38 -26 c-129 -85 -289 -56 -371 67 l-34 50 344 5 343 5 0 100 c0 92
-3 106 -34 172 -38 81 -125 174 -198 212 -95 48 -207 62 -308 37z m223 -203
c51 -24 121 -99 122 -130 0 -10 -55 -13 -245 -13 -272 0 -261 -4 -208 67 79
107 206 136 331 76z"/>
<path d="M2980 1845 l0 -75 50 0 50 0 0 -34 c0 -34 -1 -35 -47 -38 l-48 -3 -3
-597 -2 -598 90 0 90 0 0 309 0 309 71 -36 c71 -37 72 -37 198 -37 123 0 128
1 194 33 85 42 164 122 208 210 33 65 34 71 34 188 0 119 0 121 -38 196 -45
92 -122 167 -217 212 -61 29 -72 31 -180 31 -122 0 -113 2 -262 -73 -5 -2 -8
15 -8 37 l0 41 -90 0 -90 0 0 -75z m556 -125 c174 -75 210 -314 66 -440 -45
-40 -119 -70 -172 -70 -108 0 -225 89 -255 194 -34 118 15 240 122 303 79 46
154 50 239 13z"/>
<path d="M504 727 c-10 -28 1 -200 14 -205 8 -2 12 11 12 47 0 50 12 67 24 35
3 -9 6 -31 6 -50 0 -31 3 -34 29 -34 25 0 31 5 36 31 8 34 27 34 35 -1 6 -25
30 -40 30 -18 -1 33 -28 199 -33 204 -14 14 -26 -12 -43 -96 -21 -104 -38
-100 -36 9 0 36 -4 71 -10 78 -14 17 -57 17 -64 0z m46 -46 c0 -17 -4 -33 -10
-36 -6 -4 -10 8 -10 29 0 20 5 36 10 36 6 0 10 -13 10 -29z m96 -79 c-11 -10
-14 3 -8 33 l7 30 3 -28 c2 -16 1 -31 -2 -35z"/>
<path d="M705 730 c-11 -18 7 -210 20 -210 7 0 15 18 19 40 8 51 22 51 31 -1
12 -71 29 -39 38 70 8 94 6 123 -8 109 -3 -2 -8 -33 -12 -69 -6 -56 -7 -61
-16 -36 -11 34 -23 34 -35 0 -9 -24 -11 -18 -11 40 -1 61 -10 82 -26 57z"/>
<path d="M1034 719 c-14 -15 -19 -36 -19 -82 0 -89 10 -117 41 -117 20 0 28 8
41 37 20 50 13 151 -13 170 -24 17 -28 17 -50 -8z m40 -25 c8 -20 8 -108 0
-128 -14 -37 -24 -11 -24 64 0 75 10 101 24 64z"/>
<path d="M1137 732 c-12 -2 -16 -9 -13 -19 3 -8 6 -55 6 -104 0 -72 3 -89 15
-89 11 0 15 12 15 51 0 31 4 48 10 44 6 -3 10 -26 10 -51 0 -34 4 -44 16 -44
14 0 16 8 10 53 -4 28 -8 74 -9 101 -2 51 -19 67 -60 58z m43 -57 c0 -13 -4
-27 -10 -30 -6 -4 -10 8 -10 30 0 22 4 34 10 30 6 -3 10 -17 10 -30z"/>
<path d="M1249 721 c-22 -17 -24 -27 -24 -95 1 -65 4 -80 23 -98 37 -37 56
-15 60 66 3 61 1 66 -18 66 -22 0 -26 -10 -9 -27 7 -7 8 -27 4 -53 -10 -62
-26 -35 -27 45 -1 58 2 70 20 86 12 9 22 20 22 23 0 13 -29 5 -51 -13z"/>
<path d="M1497 734 c-4 -4 -7 -23 -8 -43 l-1 -36 -15 38 c-9 20 -22 37 -30 37
-11 0 -13 -21 -11 -107 3 -120 21 -145 26 -37 3 60 4 65 17 48 8 -11 15 -42
15 -72 0 -38 4 -52 13 -50 8 3 13 36 15 108 3 95 -4 131 -21 114z"/>
<path d="M1545 728 c-10 -25 -1 -208 10 -208 13 0 19 200 6 213 -7 7 -12 5
-16 -5z"/>
<path d="M1866 673 c-28 -125 -30 -153 -13 -153 10 0 17 11 19 28 4 36 32 36
36 -1 2 -16 8 -27 13 -25 14 5 14 7 -1 121 -15 119 -31 128 -54 30z m30 -71
c-12 -12 -18 8 -10 35 l8 28 4 -28 c2 -16 1 -31 -2 -35z"/>
<path d="M1955 718 c-3 -13 -5 -61 -3 -108 l3 -85 38 -3 c39 -3 53 14 15 20
-22 3 -23 7 -24 97 0 61 -5 96 -12 99 -6 2 -14 -7 -17 -20z"/>
<path d="M2046 718 c-8 -30 -8 -162 0 -182 4 -10 18 -16 40 -16 38 0 47 17 12
22 -22 3 -23 7 -24 97 -1 92 -14 130 -28 79z"/>
<path d="M2187 733 c-9 -8 -9 -176 -1 -197 14 -36 24 -12 24 56 0 72 0 72 18
48 10 -15 17 -43 17 -72 0 -32 4 -48 13 -48 9 0 12 29 12 110 0 67 -4 110 -10
110 -5 0 -10 -16 -10 -35 0 -19 -4 -35 -8 -35 -4 0 -14 16 -21 35 -12 34 -21
42 -34 28z"/>
<path d="M2326 732 c-6 -10 -46 -186 -46 -202 0 -24 28 -7 34 21 7 37 30 34
34 -4 2 -15 10 -27 18 -27 8 0 14 3 14 6 0 6 -18 133 -26 182 -5 31 -17 41
-28 24z m10 -130 c-12 -11 -17 7 -9 34 l8 29 3 -28 c2 -16 1 -31 -2 -35z"/>
<path d="M2385 729 c-4 -6 0 -16 9 -22 14 -10 16 -28 14 -96 -2 -60 1 -85 10
-88 9 -4 12 19 12 90 0 90 1 95 23 101 21 7 21 7 2 16 -28 12 -63 12 -70 -1z"/>
<path d="M2482 633 c3 -106 3 -108 27 -111 40 -6 51 21 51 126 0 71 -3 93 -12
89 -9 -3 -12 -21 -10 -53 3 -64 -7 -134 -19 -134 -5 0 -9 42 -9 95 0 79 -3 95
-15 95 -13 0 -15 -16 -13 -107z"/>
<path d="M2587 733 c-2 -5 -3 -53 -2 -108 1 -79 4 -100 16 -100 11 0 13 11 11
49 -3 37 -1 47 10 44 8 -3 14 -23 16 -52 3 -46 4 -47 35 -44 24 2 33 9 37 27
7 29 30 40 30 14 0 -23 17 -50 25 -41 9 8 -16 200 -26 212 -14 16 -22 -1 -44
-102 l-22 -97 -8 45 c-5 25 -8 65 -6 88 1 24 -3 50 -10 58 -12 15 -55 19 -62
7z m48 -53 c0 -13 -6 -25 -12 -27 -9 -3 -13 6 -13 27 0 21 4 30 13 28 6 -3 12
-15 12 -28z m99 -52 c4 -17 2 -28 -4 -28 -5 0 -10 14 -10 32 0 36 4 35 14 -4z"/>
<path d="M2792 633 l3 -108 29 -3 c16 -2 33 1 39 7 8 8 3 11 -16 11 l-27 0 0
100 c0 83 -3 100 -15 100 -13 0 -15 -16 -13 -107z"/>
<path d="M1347 668 c-28 -115 -31 -148 -13 -148 10 0 16 9 16 25 0 18 5 25 20
25 15 0 20 -7 20 -25 0 -16 6 -25 15 -25 11 0 14 7 10 23 -4 19 -25 171 -25
183 0 2 -6 4 -14 4 -8 0 -19 -23 -29 -62z m33 -43 c0 -19 -4 -35 -10 -35 -11
0 -13 30 -4 54 10 25 14 19 14 -19z"/>
<path d="M1615 710 c-27 -30 -33 -131 -11 -166 12 -17 25 -24 39 -22 20 3 28
23 10 23 -24 1 -33 21 -33 70 0 43 5 60 26 84 24 28 24 31 6 31 -10 0 -27 -9
-37 -20z"/>
<path d="M882 658 c-19 -19 -14 -45 10 -62 19 -13 25 -14 43 -2 25 16 31 42
15 61 -15 18 -52 19 -68 3z m42 -16 c2 -4 -4 -8 -14 -8 -10 0 -16 4 -14 8 3 4
9 8 14 8 5 0 11 -4 14 -8z"/>
<path d="M1716 654 c-12 -31 -6 -55 17 -63 41 -16 77 22 57 60 -13 24 -65 26
-74 3z m44 -12 c0 -5 -7 -9 -15 -9 -8 0 -15 4 -15 9 0 4 7 8 15 8 8 0 15 -4
15 -8z"/>
</g>
</svg>
